<svg width="61" height="118" viewBox="0 0 61 118" fill="none" xmlns="http://www.w3.org/2000/svg">
<path opacity="0.6" d="M42 2.7583V115.758C42 116.863 41.1046 117.758 40 117.758H8.65975C7.49473 117.758 6.57629 116.767 6.66565 115.605L15.358 2.60491C15.4381 1.56291 16.307 0.758301 17.3521 0.758301H40C41.1046 0.758301 42 1.65373 42 2.7583Z" fill="#FF6F43"/>
<path fill-rule="evenodd" clip-rule="evenodd" d="M14.5932 35.6211C10.4844 35.6211 7.1499 38.8869 7.1499 42.9108C7.1499 46.9349 10.4845 50.2006 14.5932 50.2006C18.7021 50.2006 22.0366 46.9348 22.0366 42.9108C22.0366 38.8867 18.702 35.6211 14.5932 35.6211ZM14.5932 37.7031C17.528 37.7031 19.9108 40.0362 19.9108 42.9108C19.9108 45.785 17.5285 48.1186 14.5932 48.1186C11.6585 48.1186 9.27574 45.7855 9.27574 42.9108C9.27574 40.0366 11.658 37.7031 14.5932 37.7031Z" fill="#F7F7F7"/>
<path fill-rule="evenodd" clip-rule="evenodd" d="M37.9869 54.3698H50.7478C51.3345 54.3698 51.8112 53.903 51.8112 53.3283C51.8112 52.7537 51.3345 52.2869 50.7478 52.2869H37.9869C37.4002 52.2869 36.9235 52.7537 36.9235 53.3283C36.9235 53.903 37.4002 54.3698 37.9869 54.3698Z" fill="#F7F7F7"/>
<path fill-rule="evenodd" clip-rule="evenodd" d="M33.7333 58.5365H46.4941C47.0809 58.5365 47.5575 58.0697 47.5575 57.4951C47.5575 56.9204 47.0809 56.4536 46.4941 56.4536H33.7333C33.1465 56.4536 32.6699 56.9204 32.6699 57.4951C32.6699 58.0697 33.1465 58.5365 33.7333 58.5365Z" fill="#F7F7F7"/>
<path fill-rule="evenodd" clip-rule="evenodd" d="M23.1005 75.1977H6.08478C3.14857 75.1977 0.767761 72.8661 0.767761 69.9904V61.6546C0.767761 56.4785 5.05225 52.2815 10.3384 52.2815H18.8466C24.1328 52.2815 28.4172 56.4785 28.4172 61.6546V69.9904C28.4172 72.8661 26.0374 75.1977 23.1002 75.1977H23.1005ZM22.0371 73.1148H23.1005C24.8627 73.1148 26.2907 71.7163 26.2907 69.9904V61.6546C26.2907 57.6283 22.958 54.3644 18.8468 54.3644H10.3386C6.22746 54.3644 2.89481 57.6283 2.89481 61.6546V69.9904C2.89481 71.7163 4.32281 73.1148 6.08503 73.1148H7.14938V63.7398C7.14938 63.1651 7.62601 62.6983 8.21278 62.6983C8.79955 62.6983 9.27619 63.1651 9.27619 63.7398V73.1148H19.9102V63.7426C19.9102 63.168 20.3869 62.7012 20.9736 62.7012C21.5604 62.7012 22.037 63.168 22.037 63.7426L22.0371 73.1148Z" fill="#F7F7F7"/>
<path fill-rule="evenodd" clip-rule="evenodd" d="M28.4163 27.2908H53.938C54.22 27.2908 54.4901 27.4 54.6899 27.5958L60.007 32.8031C60.3113 33.1011 60.4015 33.5488 60.2367 33.9384C60.0729 34.3271 59.6846 34.581 59.255 34.581H55.0014V46.037C55.0014 48.3375 53.0967 50.2028 50.7478 50.2028H31.6065C29.2575 50.2028 27.3529 48.3375 27.3529 46.037V34.581H23.0992C22.6687 34.581 22.2813 34.3267 22.1165 33.9384C21.9518 33.5488 22.043 33.1011 22.3473 32.8031L27.6643 27.5958C27.8632 27.4 28.1333 27.2908 28.4163 27.2908ZM42.2405 30.8461V48.12H50.7478C51.9218 48.12 52.8746 47.1879 52.8746 46.0371V34.5811H46.4941C46.2112 34.5811 45.9411 34.4718 45.7422 34.2761L42.2405 30.8461ZM40.1137 30.8461L36.6107 34.2754C36.4118 34.4712 36.1407 34.5804 35.8587 34.5804L29.4797 34.5809V46.0369C29.4797 47.1877 30.4316 48.1199 31.6065 48.1199H40.1138L40.1137 30.8461ZM43.744 29.3737L46.9342 32.4981H56.6867L53.4964 29.3737H43.744ZM25.6661 32.4981H35.4186L38.6088 29.3737H28.8563L25.6661 32.4981Z" fill="#F7F7F7"/>
</svg>
