<svg width="23" height="22" viewBox="0 0 23 22" fill="none" xmlns="http://www.w3.org/2000/svg">
<rect x="0.5" width="22" height="22" rx="11" fill="#F7F7F7"/>
<path d="M14.9397 5.25045C12.8433 4.85011 10.6664 4.85011 8.57003 5.25045C7.6428 5.45062 6.47369 6.57156 6.27212 7.4523C5.90929 9.17375 5.90929 10.9352 6.27212 12.6567C6.51401 13.5374 7.68311 14.6584 8.57003 14.8585C8.61034 14.8585 8.65065 14.8986 8.65065 14.9386V17.4607C8.65065 17.5808 8.81191 17.6609 8.89254 17.5408L10.102 16.2997C10.102 16.2997 11.0695 15.2989 11.2308 15.1388C11.2308 15.1388 11.2711 15.0987 11.3114 15.0987C12.5208 15.1388 13.7706 15.0187 14.98 14.8185C15.9072 14.6183 17.0763 13.4974 17.2779 12.6166C17.6407 10.8952 17.6407 9.13371 17.2779 7.41227C17.036 6.57156 15.8669 5.45062 14.9397 5.25045ZM14.98 12.7768C14.7784 13.1771 14.5365 13.4974 14.1334 13.6976C14.0124 13.7376 13.8915 13.7776 13.7706 13.8177C13.6093 13.7776 13.4884 13.7376 13.3674 13.6976C12.0774 13.1771 10.8679 12.4565 9.90039 11.4156C9.37631 10.8151 8.93285 10.1346 8.57003 9.41395C8.40877 9.05365 8.24751 8.73338 8.12657 8.37307C8.00563 8.0528 8.2072 7.73254 8.40877 7.49233C8.61034 7.25213 8.85223 7.092 9.13442 6.9719C9.33599 6.85179 9.53757 6.93186 9.69882 7.092C10.0213 7.49233 10.3438 7.89267 10.5857 8.33304C10.747 8.61328 10.7067 8.93355 10.4245 9.13371C10.3438 9.17375 10.3035 9.21378 10.2229 9.29385C10.1826 9.33388 10.102 9.37392 10.0616 9.45398C9.98102 9.57408 9.98102 9.69419 10.0213 9.81429C10.3438 10.7351 10.9486 11.4557 11.8758 11.856C12.037 11.9361 12.158 11.9761 12.3596 11.9761C12.6418 11.9361 12.7627 11.6158 12.9643 11.4557C13.1658 11.2955 13.4077 11.2955 13.6496 11.4156C13.8512 11.5357 14.0527 11.6959 14.2946 11.856C14.4962 12.0161 14.6978 12.1362 14.8993 12.2964C15.0203 12.3764 15.0606 12.5766 14.98 12.7768ZM13.2868 9.77425C13.2062 9.77425 13.2465 9.77425 13.2868 9.77425C13.1255 9.77425 13.0852 9.69419 13.0449 9.57409C13.0449 9.49402 13.0449 9.37392 13.0046 9.29385C12.9643 9.13371 12.8836 8.97358 12.7224 8.85348C12.6418 8.81344 12.5611 8.77341 12.4805 8.73338C12.3596 8.69334 12.2789 8.69334 12.158 8.69334C12.037 8.65331 11.9967 8.57324 11.9967 8.45314C11.9967 8.37307 12.1177 8.29301 12.1983 8.29301C12.8433 8.33304 13.3271 8.69334 13.4077 9.45398C13.4077 9.49402 13.4077 9.57408 13.4077 9.61412C13.4077 9.69419 13.3674 9.77425 13.2868 9.77425ZM12.8836 8.01277C12.6821 7.9327 12.4805 7.85264 12.2386 7.8126C12.158 7.8126 12.037 7.77257 11.9564 7.77257C11.8355 7.77257 11.7548 7.6925 11.7952 7.5724C11.7952 7.4523 11.8758 7.37223 11.9967 7.41227C12.3999 7.4523 12.7627 7.53237 13.1255 7.6925C13.8512 8.05281 14.2543 8.65331 14.3753 9.45398C14.3753 9.49402 14.3753 9.53405 14.3753 9.57409C14.3753 9.65415 14.3753 9.73422 14.3753 9.85432C14.3753 9.89435 14.3753 9.93439 14.3753 9.97442C14.3349 10.1346 14.0527 10.1746 14.0124 9.97442C14.0124 9.93439 13.9721 9.85432 13.9721 9.81429C13.9721 9.45398 13.8915 9.09368 13.7302 8.77341C13.4884 8.41311 13.2062 8.17291 12.8836 8.01277ZM15.0606 10.4148C14.9397 10.4148 14.859 10.2947 14.859 10.1746C14.859 9.93439 14.8187 9.69418 14.7784 9.45398C14.6171 8.17291 13.569 7.13203 12.3192 6.93186C12.1177 6.89183 11.9161 6.89183 11.7548 6.85179C11.6339 6.85179 11.4726 6.85179 11.4323 6.69166C11.392 6.57156 11.513 6.45146 11.6339 6.45146C11.6742 6.45146 11.7145 6.45146 11.7145 6.45146C13.3674 6.49149 11.7952 6.45146 11.7145 6.45146C13.4077 6.49149 14.8187 7.61243 15.1009 9.29385C15.1412 9.57408 15.1815 9.85432 15.1815 10.1746C15.2622 10.2947 15.1815 10.4148 15.0606 10.4148Z" fill="black"/>
</svg>
