<svg width="22" height="22" viewBox="0 0 22 22" fill="none" xmlns="http://www.w3.org/2000/svg">
<rect width="22" height="22" rx="11" fill="#F7F7F7"/>
<path d="M15.3598 6.63457C14.2732 5.55176 12.8244 4.9502 11.2951 4.9502C8.11585 4.9502 5.54024 7.51686 5.54024 10.6851C5.54024 11.6877 5.82195 12.6903 6.30488 13.5325L5.5 16.5002L8.55854 15.6981C9.40366 16.1393 10.3293 16.3799 11.2951 16.3799C14.4744 16.3799 17.05 13.8132 17.05 10.645C17.0098 9.16113 16.4463 7.71738 15.3598 6.63457ZM14.072 12.7304C13.9512 13.0512 13.3878 13.3721 13.1061 13.4122C12.8646 13.4523 12.5427 13.4523 12.2207 13.3721C12.0195 13.2919 11.7378 13.2117 11.4159 13.0512C9.96707 12.4497 9.04146 11.0059 8.96098 10.8856C8.88049 10.8054 8.35732 10.1236 8.35732 9.40176C8.35732 8.67988 8.71951 8.35905 8.84024 8.19863C8.96098 8.03822 9.12195 8.03822 9.24268 8.03822C9.32317 8.03822 9.4439 8.03822 9.52439 8.03822C9.60488 8.03822 9.72561 7.99811 9.84634 8.27884C9.96707 8.55957 10.2488 9.28145 10.289 9.32155C10.3293 9.40176 10.3293 9.48197 10.289 9.56217C10.2488 9.64238 10.2085 9.72259 10.128 9.8028C10.0476 9.88301 9.96707 10.0033 9.92683 10.0434C9.84634 10.1236 9.76585 10.2038 9.84634 10.3242C9.92683 10.4846 10.2085 10.9257 10.6512 11.3268C11.2146 11.808 11.6573 11.9684 11.8183 12.0486C11.9793 12.1288 12.0598 12.0887 12.1402 12.0085C12.2207 11.9283 12.5024 11.6075 12.5829 11.4471C12.6634 11.2867 12.7841 11.3268 12.9049 11.3669C13.0256 11.407 13.75 11.7679 13.8707 11.8481C14.0317 11.9283 14.1122 11.9684 14.1524 12.0085C14.1927 12.1288 14.1927 12.4096 14.072 12.7304Z" fill="black"/>
</svg>
