<svg width="97" height="97" viewBox="0 0 97 97" fill="none" xmlns="http://www.w3.org/2000/svg">
<circle opacity="0.6" cx="48.9649" cy="48.0397" r="48" fill="#FF6F43"/>
<path d="M29.9797 70.611H35.5514C34.3568 72.4319 33.6556 74.5907 33.6556 76.9111V80.5111C33.6556 81.0077 34.0675 81.4111 34.5746 81.4111H40.152C40.6069 84.9573 43.6983 87.7112 47.4402 87.7112C51.1822 87.7112 54.2738 84.9573 54.7285 81.4111H68.6339C69.088 84.9581 72.1867 87.7112 75.9286 87.7112C79.6706 87.7112 82.7622 84.9573 83.2169 81.4111H83.2805C83.7876 81.4111 84.1995 81.0077 84.1995 80.5111V74.6783C84.1995 70.6949 82.151 67.0399 78.7196 64.9015C75.9701 63.1879 74.2901 60.318 74.1239 57.1543C75.3863 58.2387 77.1019 58.9109 78.6856 58.9109C79.1927 58.9109 79.6046 58.5075 79.6046 58.0109V49.0108C79.6046 48.5142 79.1927 48.1108 78.6856 48.1108C76.3332 48.1108 73.6846 49.5894 72.6774 51.7108H64.901C64.3939 51.7108 63.982 52.1142 63.982 52.6108V56.2109C63.982 56.7075 64.3939 57.1109 64.901 57.1109H68.5769V76.011H61.1784C60.8813 72.2173 58.7341 68.9323 55.6157 67.011H61.2251C61.7322 67.011 62.1441 66.6076 62.1441 66.111V45.4108C62.1441 44.9141 61.7322 44.5107 61.2251 44.5107H29.98C29.4729 44.5107 29.061 44.9141 29.061 45.4108V69.711C29.061 70.2076 29.4729 70.611 29.98 70.611H29.9797ZM75.9284 85.9111C73.2019 85.9111 70.9376 83.9608 70.4974 81.4111H72.383C72.7936 82.9592 74.2209 84.1111 75.9284 84.1111C77.6359 84.1111 79.0632 82.9592 79.4739 81.4111H81.3594C80.9192 83.9608 78.655 85.9111 75.9284 85.9111ZM74.3461 81.4111H77.5113C77.1925 81.9467 76.6062 82.3111 75.929 82.3111C75.2512 82.3111 74.665 81.9467 74.3462 81.4111H74.3461ZM77.7664 50.0116V57.01C75.9375 56.623 74.0905 55.1686 74.0905 53.5107C74.0905 51.8529 75.9375 50.3984 77.7664 50.0115V50.0116ZM70.4146 53.5108H72.2525V56.6436C72.2525 60.6 74.2771 64.229 77.6663 66.3725C74.5516 67.209 72.2525 69.9991 72.2525 73.311H74.0905C74.0905 70.3402 76.5524 67.9226 79.5843 67.9118C81.3488 69.7102 82.3612 72.1113 82.3612 74.6783V79.6111H70.4146V53.5108ZM65.8197 55.3108V53.5108H68.5766V55.3108H65.8197ZM68.5766 79.6111H61.2248V77.8111H68.5766V79.6111ZM30.8987 68.811V67.011H39.2642C38.4363 67.5212 37.6761 68.1235 37.0008 68.811H30.8987ZM55.711 79.6111H39.1694V78.7111C39.1694 74.2452 42.8802 70.611 47.4402 70.611C52.0002 70.611 55.711 74.2452 55.711 78.7111V79.6111ZM49.0225 81.4111C48.7038 81.9467 48.1175 82.3111 47.4402 82.3111C46.7629 82.3111 46.1767 81.9467 45.8579 81.4111H49.0225ZM47.4402 85.9111C44.7136 85.9111 42.4494 83.9608 42.0092 81.4111H43.8948C44.3054 82.9592 45.7327 84.1111 47.4402 84.1111C49.1477 84.1111 50.575 82.9592 50.9857 81.4111H52.8712C52.431 83.9608 50.1668 85.9111 47.4402 85.9111V85.9111ZM59.3869 76.9111V79.6111H57.5489V78.7111C57.5489 73.2524 53.0139 68.811 47.4402 68.811C41.8665 68.811 37.3315 73.2524 37.3315 78.7111V79.6111H35.4936V76.9111C35.4936 71.4524 40.0286 67.011 45.6023 67.011H49.2782C54.8519 67.011 59.3869 71.4524 59.3869 76.9111ZM60.3059 46.3108V65.2109H30.8987V46.3108H60.3059Z" fill="#F7F7F7"/>
<path d="M57.5489 61.611H55.711V60.711C55.711 55.5556 51.6658 51.3131 46.5213 50.8567V49.0109H44.6833V50.8567C39.5387 51.3131 35.4936 55.5556 35.4936 60.711V61.611H33.6556V63.411H57.5489V61.611ZM37.3315 60.711C37.3315 56.2451 41.0423 52.6109 45.6023 52.6109C50.1623 52.6109 53.873 56.2451 53.873 60.711V61.611H37.3315V60.711Z" fill="#F7F7F7"/>
<path d="M55.711 42.7107H57.549C57.549 37.7482 53.4263 33.7106 48.3592 33.7106H32.7366V35.5106H48.3592C52.413 35.5106 55.711 38.7405 55.711 42.7107Z" fill="#F7F7F7"/>
<path d="M41.9264 37.3107V39.1107H47.4402C49.4673 39.1107 51.1161 40.7255 51.1161 42.7107H52.9541C52.9541 39.7327 50.4811 37.3107 47.4402 37.3107H41.9264Z" fill="#F7F7F7"/>
<path d="M38.2505 37.3107H40.0884V39.1107H38.2505V37.3107Z" fill="#F7F7F7"/>
<path d="M29.0607 33.7107H30.8987V35.5107H29.0607V33.7107Z" fill="#F7F7F7"/>
<path d="M34.5746 37.3107H36.4125V39.1107H34.5746V37.3107Z" fill="#F7F7F7"/>
<path d="M40.0307 57.5604L41.6213 58.462C42.4422 57.0734 43.9676 56.2112 45.6024 56.2112V54.4111C43.3132 54.4111 41.1786 55.6181 40.0307 57.5603V57.5604Z" fill="#F7F7F7"/>
<path d="M72.2525 75.111H74.0905V76.911H72.2525V75.111Z" fill="#F7F7F7"/>
</svg>
