<svg width="92" height="95" viewBox="0 0 92 95" fill="none" xmlns="http://www.w3.org/2000/svg">
<path opacity="0.6" d="M7.69827 91.6277L0.174258 13.5662C0.075423 12.5408 0.771654 11.6081 1.78283 11.4112L55.3128 0.989436C56.0427 0.847328 56.7912 1.12192 57.2561 1.70234L90.5594 43.2852C91.3199 44.2348 91.0636 45.6377 90.0164 46.257L10.7071 93.1573C9.44659 93.9027 7.83876 93.0853 7.69827 91.6277Z" fill="#FF6F43"/>
<path d="M24.2854 20.2906C21.7818 20.2906 19.4608 21.4579 18.1668 23.3672C16.8728 25.276 16.7944 27.6494 17.96 29.6233L23.3868 38.8072C23.5623 39.1044 23.9082 39.2906 24.2854 39.2906C24.6627 39.2906 25.0086 39.1044 25.1841 38.8072L30.6104 29.6233H30.6108C31.7765 27.6494 31.6981 25.276 30.4041 23.3672C29.1101 21.4579 26.7891 20.2906 24.2854 20.2906H24.2854ZM28.8131 28.7799L24.2854 36.4432L19.7578 28.7799C18.9239 27.3671 18.9802 25.6691 19.9065 24.3026C20.8328 22.9362 22.4936 22.1014 24.2855 22.1014C26.0774 22.1014 27.7381 22.9362 28.6645 24.3026C29.5908 25.6691 29.647 27.3671 28.8132 28.7799H28.8131Z" fill="#F7F7F7"/>
<path d="M24.2854 24.2907C23.4729 24.2907 22.6941 24.6068 22.1193 25.1693C21.545 25.7322 21.2222 26.4949 21.2222 27.2907C21.2222 28.0864 21.545 28.8492 22.1193 29.4121C22.6941 29.9746 23.4729 30.2906 24.2854 30.2906C25.098 30.2906 25.8768 29.9746 26.4516 29.4121C27.0259 28.8492 27.3487 28.0864 27.3487 27.2907C27.3478 26.4954 27.0247 25.733 26.4503 25.1705C25.876 24.608 25.0975 24.2915 24.2854 24.2906L24.2854 24.2907ZM24.2854 28.4446C23.8091 28.4446 23.3795 28.1635 23.1969 27.7325C23.0148 27.301 23.1153 26.8049 23.4524 26.4748C23.7894 26.1447 24.296 26.0462 24.7366 26.2246C25.1767 26.4035 25.4637 26.8242 25.4637 27.2907C25.4628 27.9273 24.9356 28.4437 24.2855 28.4446L24.2854 28.4446Z" fill="#F7F7F7"/>
<path d="M17.0244 67.2906H31.5464C31.7871 67.2906 32.018 67.1935 32.1882 67.0206C32.3584 66.8476 32.454 66.613 32.454 66.3684V57.1459C32.4524 55.6789 31.8782 54.2721 30.8575 53.2346C29.8364 52.1975 28.452 51.6141 27.0083 51.6124H26.9803C28.0119 50.8388 28.6732 49.6575 28.8008 48.3614C28.9285 47.0649 28.5107 45.7742 27.6505 44.8079C26.7899 43.842 25.5674 43.2906 24.2854 43.2906C23.0035 43.2906 21.7809 43.8419 20.9204 44.8079C20.0602 45.7742 19.6424 47.0649 19.77 48.3614C19.8977 49.6575 20.5589 50.8388 21.5906 51.6124H21.5626C20.1189 51.614 18.7343 52.1975 17.7133 53.2346C16.6927 54.2721 16.1185 55.6789 16.1169 57.1459V66.3684C16.1169 66.613 16.2125 66.8476 16.3827 67.0206C16.5528 67.1935 16.7837 67.2906 17.0244 67.2906ZM21.5625 47.9234C21.5625 47.1897 21.8494 46.4856 22.3599 45.967C22.8705 45.4483 23.5634 45.1567 24.2853 45.1567C25.0073 45.1567 25.7003 45.4482 26.2107 45.967C26.7212 46.4857 27.0082 47.1898 27.0082 47.9234C27.0082 48.657 26.7213 49.3612 26.2107 49.8798C25.7002 50.3985 25.0073 50.6901 24.2853 50.6901C23.5634 50.6901 22.8704 50.3986 22.3599 49.8798C21.8495 49.3611 21.5625 48.657 21.5625 47.9234ZM17.932 57.1459C17.932 56.1677 18.3145 55.2293 18.9952 54.5373C19.6763 53.8456 20.5998 53.4569 21.5625 53.4569H27.0083C27.971 53.4569 28.8945 53.8456 29.5755 54.5373C30.2563 55.2293 30.6388 56.1677 30.6388 57.1459V65.4461H17.932V57.1459Z" fill="#F7F7F7"/>
<path d="M70.4899 9.29073C69.3722 9.29199 68.2891 9.66765 67.4235 10.3542C66.5574 11.0407 65.9619 11.9965 65.7367 13.0599H54.4844C52.3853 13.0578 50.3293 13.6337 48.5533 14.7203C46.7773 15.807 45.3548 17.3601 44.4502 19.2001C44.3986 19.2001 44.3532 19.185 44.299 19.185C42.5664 19.185 40.965 20.0831 40.0988 21.5407C39.2323 22.9983 39.2323 24.7946 40.0988 26.2522C40.9649 27.7099 42.5664 28.608 44.299 28.608C44.3506 28.608 44.396 28.595 44.4502 28.5929C45.3548 30.4329 46.7773 31.986 48.5533 33.0726C50.3293 34.1592 52.3853 34.7352 54.4844 34.733C56.6557 34.7276 58.7811 35.3413 60.5969 36.4986C62.4127 37.6555 63.8387 39.3045 64.6987 41.2417C63.5299 41.7297 62.6053 42.6446 62.1247 43.7888C61.6435 44.9331 61.6448 46.2148 62.1277 47.3583C62.611 48.5017 63.5368 49.415 64.7065 49.9012C63.8426 51.8368 62.4144 53.4841 60.5978 54.6401C58.7811 55.7961 56.6562 56.4099 54.4844 56.406H36.5383V58.2906H54.4844C57.1039 58.2948 59.6646 57.5334 61.8324 56.1048C64.0001 54.6762 65.6752 52.6469 66.6396 50.281C68.3354 50.2264 69.8779 49.3156 70.7085 47.8785C71.5391 46.4415 71.5361 44.6877 70.7016 43.2533C69.8667 41.8188 68.3206 40.9123 66.6252 40.8626C65.6682 38.4943 63.9971 36.4616 61.8305 35.0313C59.6644 33.6015 57.1038 32.8404 54.4842 32.8484C52.8209 32.8472 51.1891 32.4084 49.7618 31.5788C48.334 30.7493 47.1643 29.56 46.3767 28.1369C47.4883 27.6304 48.3592 26.7314 48.8117 25.6225C49.2643 24.514 49.2643 23.2789 48.8117 22.1704C48.3592 21.0615 47.4883 20.1625 46.3767 19.6561C47.1644 18.2329 48.334 17.0437 49.7618 16.2141C51.1891 15.3845 52.8209 14.9458 54.4842 14.9445H65.7366C65.9826 16.1152 66.6772 17.1514 67.6801 17.8434C68.6826 18.5354 69.9185 18.8311 71.1376 18.6713C72.3567 18.5114 73.4674 17.9077 74.2451 16.9822C75.0233 16.0572 75.4105 14.8789 75.3282 13.6866C75.2455 12.4945 74.7003 11.3776 73.8021 10.5611C72.9035 9.74499 71.7196 9.29108 70.4897 9.29065L70.4899 9.29073ZM69.5198 45.57C69.5198 46.3196 69.2132 47.039 68.6676 47.569C68.1219 48.0989 67.3814 48.3968 66.6098 48.3968C65.8382 48.3968 65.0975 48.099 64.552 47.569C64.0065 47.0389 63.6998 46.3195 63.6998 45.57C63.6998 44.8204 64.0064 44.101 64.552 43.571C65.0976 43.0411 65.8382 42.7431 66.6098 42.7431C67.3814 42.7431 68.122 43.041 68.6676 43.571C69.2131 44.1011 69.5198 44.8204 69.5198 45.57ZM47.2091 23.897C47.2091 24.6466 46.9025 25.366 46.3569 25.896C45.8113 26.4259 45.0707 26.7238 44.2991 26.7238C43.5275 26.7238 42.7869 26.426 42.2413 25.896C41.6958 25.3659 41.3891 24.6465 41.3891 23.897C41.3891 23.1474 41.6957 22.428 42.2413 21.898C42.787 21.3681 43.5275 21.0701 44.2991 21.0701C45.0707 21.0701 45.8114 21.368 46.3569 21.898C46.9024 22.4281 47.2091 23.1474 47.2091 23.897ZM70.4899 16.8297C69.7182 16.8297 68.9776 16.5319 68.4321 16.0018C67.8865 15.4718 67.5798 14.7524 67.5798 14.0028C67.5798 13.2533 67.8864 12.5338 68.4321 12.0039C68.9777 11.4739 69.7183 11.176 70.4899 11.176C71.2614 11.176 72.0021 11.4738 72.5477 12.0039C73.0932 12.5339 73.3999 13.2533 73.3999 14.0028C73.3999 14.7524 73.0933 15.4719 72.5477 16.0018C72.002 16.5318 71.2614 16.8297 70.4899 16.8297Z" fill="#F7F7F7"/>
</svg>
