<svg width="155" height="152" viewBox="0 0 155 152" fill="none" xmlns="http://www.w3.org/2000/svg">
<path opacity="0.6" d="M106.219 117.737L31.6313 108.296C30.4761 108.149 29.6868 107.079 29.9077 105.959L43.2309 38.3913C43.3924 37.572 44.0612 36.9396 44.9028 36.8101L106.167 27.3848C107.393 27.1962 108.5 28.1235 108.5 29.3384L108.5 115.773C108.5 116.967 107.428 117.89 106.219 117.737Z" fill="#FF6F43"/>
<path d="M58.8753 75.0731C59.9116 74.0582 61.1551 73.4493 62.606 73.1448L67.9947 72.2314C69.2382 73.3478 70.8963 73.8552 72.4507 73.8552C74.0052 73.8552 75.6632 73.3478 76.9068 72.2314L82.2955 73.1448C83.7463 73.3478 84.9899 74.0582 86.0262 75.0731C86.2334 75.2761 87.0625 75.5806 87.477 75.0731C87.8915 74.6672 87.8915 74.0582 87.477 73.6522C86.1298 72.3329 84.4717 71.5209 82.6064 71.2165L77.6322 70.4046V66.6494C80.1193 65.0256 81.7774 62.1838 81.7774 59.0376C81.7774 58.4287 81.3628 58.0227 80.7411 58.0227C80.1193 58.0227 79.7048 58.4287 79.7048 59.0376C79.7048 62.9957 76.4923 66.1419 72.4507 66.1419C68.4092 66.1419 65.1967 62.9957 65.1967 59.0376C65.1967 58.4287 64.7822 58.0227 64.1604 58.0227C63.5386 58.0227 63.1241 58.4287 63.1241 59.0376C63.1241 62.1838 64.7822 65.0256 67.2693 66.6494V70.4046L62.2951 71.2165C60.4297 71.5209 58.7717 72.3329 57.4245 73.6522C57.01 74.0582 57.01 74.6672 57.4245 75.0731C58.0463 75.6821 58.668 75.2761 58.8753 75.0731ZM69.3419 67.6643C70.2745 67.9688 71.3108 68.1718 72.4507 68.1718C73.5907 68.1718 74.6269 67.9688 75.5596 67.6643V70.8105C73.7979 72.3329 71.1035 72.3329 69.3419 70.8105V67.6643Z" fill="#F7F7F7"/>
<path d="M82.9176 100.649H54.8346V94.7622C54.8346 94.1533 54.4201 93.7473 53.7983 93.7473C53.1766 93.7473 52.7621 94.1533 52.7621 94.7622V101.664C52.7621 102.273 53.1766 102.678 53.7983 102.678H82.9188C83.5405 102.678 83.955 102.273 83.955 101.664C83.955 101.055 83.4369 100.649 82.9188 100.649H82.9176Z" fill="#F7F7F7"/>
<path d="M91.1037 93.7473C90.4819 93.7473 90.0674 94.1533 90.0674 94.7622V100.649H87.2694C86.6476 100.649 86.2331 101.055 86.2331 101.664C86.2331 102.273 86.6476 102.678 87.2694 102.678H91.1037C91.7254 102.678 92.14 102.273 92.14 101.664V94.7622C92.14 94.2548 91.7254 93.7473 91.1037 93.7473Z" fill="#F7F7F7"/>
<path d="M53.7974 83.2931C54.4191 83.2931 54.8336 82.8872 54.8336 82.2782V78.3201H69.3417V83.3946C69.3417 83.8006 69.549 84.2065 69.9635 84.308C70.378 84.511 70.7925 84.4095 71.1034 84.1051L72.4506 82.7857L73.7978 84.1051C74.1087 84.6125 74.8341 84.4095 74.9377 84.308C75.3522 84.1051 75.5595 83.8006 75.5595 83.3946V78.3201H90.0676V82.2782C90.0676 82.8872 90.4821 83.2931 91.1039 83.2931C91.7257 83.2931 92.1402 82.8872 92.1402 82.2782V77.3052C92.1402 76.6962 91.7257 76.2903 91.1039 76.2903H53.7974C53.1756 76.2903 52.7611 76.6962 52.7611 77.3052V82.2782C52.7611 82.7857 53.1756 83.2931 53.7974 83.2931ZM71.4143 78.3201H73.4869V80.9588C73.4869 80.9588 72.9688 80.3499 72.4506 80.3499C71.7252 80.3499 71.4143 80.9588 71.4143 80.9588V78.3201Z" fill="#F7F7F7"/>
<path d="M57.9425 96.5891C57.3207 96.5891 56.9062 96.9951 56.9062 97.604C56.9062 98.213 57.3207 98.6189 57.9425 98.6189H60.0151C60.6368 98.6189 61.0513 98.213 61.0513 97.604C61.0513 96.9951 60.6368 96.5891 60.0151 96.5891H57.9425Z" fill="#F7F7F7"/>
<path d="M63.1239 93.5444C63.1239 92.9355 62.7094 92.5295 62.0876 92.5295H57.9425C57.3207 92.5295 56.9062 92.9355 56.9062 93.5444C56.9062 94.1534 57.3207 94.5594 57.9425 94.5594H62.0876C62.7094 94.5594 63.1239 94.1534 63.1239 93.5444Z" fill="#F7F7F7"/>
<path d="M56.9058 89.4849V87.4551C56.9058 85.7298 55.5586 84.4104 53.7969 84.4104C52.0352 84.4104 50.688 85.7298 50.688 87.4551V89.4849C50.688 91.2103 52.0352 92.5296 53.7969 92.5296C55.5586 92.5296 56.9058 91.2103 56.9058 89.4849ZM52.7606 89.4849V87.4551C52.7606 86.8462 53.1751 86.4402 53.7969 86.4402C54.4187 86.4402 54.8332 86.8462 54.8332 87.4551V89.4849C54.8332 90.0939 54.4187 90.4998 53.7969 90.4998C53.1751 90.4998 52.7606 90.0939 52.7606 89.4849Z" fill="#F7F7F7"/>
<path d="M91.1029 84.4104C89.3412 84.4104 87.9941 85.7298 87.9941 87.4551V89.4849C87.9941 91.2103 89.3412 92.5296 91.1029 92.5296C92.8646 92.5296 94.2118 91.2103 94.2118 89.4849V87.4551C94.2118 85.7298 92.8646 84.4104 91.1029 84.4104ZM92.1392 89.4849C92.1392 90.0939 91.7247 90.4998 91.1029 90.4998C90.4812 90.4998 90.0666 90.0939 90.0666 89.4849V87.4551C90.0666 86.8462 90.4812 86.4402 91.1029 86.4402C91.7247 86.4402 92.1392 86.8462 92.1392 87.4551V89.4849Z" fill="#F7F7F7"/>
<path d="M64.5744 56.9058C65.818 58.3266 67.476 58.0222 67.7869 57.9207C70.7922 56.9058 74.0047 56.9058 77.0099 57.9207C78.1499 58.3266 79.497 57.9207 80.2224 56.9058C80.2224 56.9058 82.7095 53.3536 82.7095 53.2521V50.2074C82.7095 47.9746 81.9841 45.7418 80.5333 44.0165C80.2224 43.6105 79.497 43.509 79.0825 43.8135C78.668 44.118 78.668 44.8284 78.9789 45.2344C80.1188 46.6552 80.7406 48.3806 80.7406 50.2074V51.5268C75.5591 48.888 69.3414 48.888 64.1599 51.5268V50.2074C64.1599 45.7418 67.8906 42.0882 72.4502 42.0882C73.7974 42.0882 74.9373 42.3926 76.1809 42.9001C76.699 43.1031 77.3208 42.9001 77.5281 42.3926C77.7353 41.8852 77.5281 41.2762 77.0099 41.0733C75.5591 40.3628 74.0047 40.0583 72.4502 40.0583C66.7506 40.0583 62.0873 44.6254 62.0873 50.2074V53.2521C62.0873 53.3536 64.5744 56.9058 64.5744 56.9058ZM80.2218 53.5566L78.6674 55.6879C78.4601 55.9924 78.0456 56.0939 77.7347 55.9924C74.315 54.876 70.5843 54.876 67.1646 55.9924C66.8537 56.0939 66.4392 55.9924 66.2319 55.6879L64.5738 53.5566C69.4444 50.8163 75.4549 50.8163 80.2213 53.5566H80.2218Z" fill="#F7F7F7"/>
<path d="M70.3778 45.844C69.756 45.844 69.3415 46.25 69.3415 46.8589C69.3415 47.4678 69.756 47.8738 70.3778 47.8738H74.523C75.1448 47.8738 75.5593 47.4678 75.5593 46.8589C75.5593 46.25 75.1448 45.844 74.523 45.844H70.3778Z" fill="#F7F7F7"/>
</svg>
