<svg width="163" height="159" viewBox="0 0 163 159" fill="none" xmlns="http://www.w3.org/2000/svg">
<path opacity="0.6" d="M107.959 130.921L66.5827 140.943C65.3089 141.251 64.0782 140.308 64.0782 139.023L64.0783 19.5244C64.0783 18.2557 65.28 17.3138 66.5436 17.592L107.92 26.7021C108.841 26.905 109.496 27.7063 109.496 28.6315L109.496 128.999C109.496 129.909 108.861 130.703 107.959 130.921Z" fill="#FF6F43"/>
<path d="M111.562 84.4357C111.562 83.7981 111.379 83.1601 111.014 82.6136L106.815 75.7803C106.177 74.6867 104.99 74.0492 103.803 74.0492H92.5764C92.0289 74.0492 91.6637 74.4137 91.6637 74.9602V96.0979H52.2312C51.6837 96.0979 51.3185 96.4624 51.3185 97.009V108.125C51.3185 108.671 51.6837 109.036 52.2312 109.036H55.4257C55.3345 112.407 58.0727 115.049 61.2677 115.049C64.5539 115.049 67.1097 112.407 67.1097 109.218V109.036H68.7527V109.218C68.7527 112.407 71.3997 115.049 74.5947 115.049C77.7892 115.049 80.5278 112.407 80.4367 109.036H95.9537C95.8625 112.407 98.6006 115.049 101.796 115.049C105.082 115.049 107.729 112.407 107.638 109.036H110.376C110.923 109.036 111.289 108.671 111.289 108.125C111.562 94.55 111.562 103.114 111.562 84.4359L111.562 84.4357ZM105.355 76.6914L109.554 83.5247C109.736 83.7982 109.828 84.0712 109.828 84.4357V91.0866L93.4891 91.087V75.8714H103.895C104.442 75.8714 104.99 76.2359 105.355 76.6914H105.355ZM93.4893 92.9089H109.737V96.0975H93.4893V92.9089ZM61.3592 113.226C59.1686 113.226 57.3431 111.404 57.3431 109.218C57.3431 107.031 59.1686 105.209 61.3592 105.209C63.5498 105.209 65.3753 107.031 65.3753 109.218C65.3757 111.404 63.5498 113.226 61.3592 113.226ZM74.6859 113.226C72.4953 113.226 70.6698 111.404 70.6698 109.218C70.6698 107.031 72.4953 105.209 74.6859 105.209C76.8765 105.209 78.7019 107.031 78.7019 109.218C78.7935 111.404 76.9681 113.226 74.6859 113.226ZM101.978 113.226C99.7876 113.226 97.9622 111.404 97.9622 109.218C97.9622 107.031 99.7876 105.209 101.978 105.209C104.169 105.209 105.994 107.031 105.994 109.218C106.086 111.404 104.26 113.226 101.978 113.226ZM109.737 107.213H107.546C106.725 104.935 104.534 103.386 102.069 103.386C99.5136 103.386 97.4143 105.026 96.5927 107.213H80.2538C79.4323 104.935 77.2417 103.386 74.7771 103.386C72.2213 103.386 70.1219 105.026 69.3003 107.213H66.8362C66.0146 104.935 63.824 103.386 61.3594 103.386C58.8036 103.386 56.7042 105.026 55.8826 107.213H53.1445V97.92H109.737L109.737 107.213Z" fill="#F7F7F7"/>
<path d="M96.1445 89.0491H104.515C105.067 89.0491 105.435 88.6919 105.435 88.1563L105.435 84.5848C105.435 84.4064 105.435 84.3168 105.344 84.1384L102.584 79.4956C102.4 79.2276 102.124 79.0492 101.756 79.0492H96.1449C95.5931 79.0492 95.2251 79.4064 95.2251 79.942L95.2247 88.156C95.2247 88.692 95.6846 89.0492 96.1445 89.0492L96.1445 89.0491ZM97.0643 80.8348H101.204L103.596 84.8528L103.595 87.2632H97.0643L97.0643 80.8348Z" fill="#F7F7F7"/>
<path d="M52.3396 93.1712C52.3396 93.6979 52.7072 94.0492 53.2585 94.0492H69.8C70.3513 94.0492 70.7189 93.6979 70.7189 93.1712V76.9272C70.7189 76.4005 70.3513 76.0492 69.8 76.0492H53.2585C52.7073 76.0492 52.3396 76.4005 52.3396 76.9272V93.1712ZM54.1774 92.2932V81.5805H58.4047V83.6001C58.4047 83.9513 58.6805 84.3026 59.0478 84.3903C59.4154 84.4781 59.7831 84.3903 60.0585 84.1268L61.6209 82.3707L63.1833 84.1268C63.4592 84.3903 63.8264 84.5658 64.194 84.3903C64.5617 84.3026 64.8371 83.9513 64.8371 83.6001V81.5805H69.0643V92.2932H54.1774ZM68.881 79.8253H64.6537V77.8057H68.881V79.8253ZM62.9077 77.8057V81.1423L62.2647 80.4397C62.0811 80.2643 61.8052 80.0884 61.5294 80.0884C61.2535 80.0884 60.9781 80.1762 60.7941 80.4397L60.151 81.1423V77.8057H62.9077ZM58.405 77.8057V79.8253H54.1778V77.8057H58.405Z" fill="#F7F7F7"/>
<path d="M72.659 76.0492C72.1077 76.0492 71.7401 76.4005 71.7401 76.9272V93.1712C71.7401 93.6979 72.1077 94.0492 72.659 94.0492H89.2005C89.7517 94.0492 90.1194 93.6979 90.1194 93.1712V76.9272C90.1194 76.4005 89.7517 76.0492 89.2005 76.0492H72.659ZM77.8052 77.8052V79.8248H73.5779V77.8052H77.8052ZM73.5779 92.2931V81.5803H77.8052V83.6C77.8052 83.9512 78.081 84.3025 78.4483 84.3902C78.8159 84.478 79.1836 84.3902 79.459 84.1267L81.0214 82.3706L82.5838 84.1267C82.8596 84.3902 83.2269 84.5657 83.5945 84.3902C83.9622 84.3025 84.2376 83.9512 84.2376 83.6V81.5803H88.4648V92.2931H73.5779ZM88.2815 79.8252H84.0542V77.8056H88.2815V79.8252ZM82.2164 77.8056V81.1422L81.5733 80.4396C81.3897 80.2642 81.1139 80.0883 80.838 80.0883C80.5622 80.0883 80.2868 80.1761 80.1027 80.4396L79.4597 81.1422V77.8056H82.2164Z" fill="#F7F7F7"/>
<path d="M61.5292 73.1614C61.5292 73.694 61.8902 74.0492 62.4315 74.0492H80.0273C80.5686 74.0492 80.9296 73.694 80.9296 73.1614V55.937C80.9296 55.4044 80.5686 55.0492 80.0273 55.0492H62.4315C61.8902 55.0492 61.5292 55.4044 61.5292 55.937V73.1614ZM63.3339 72.2736V60.82H67.936V63.0394C67.936 63.3946 68.2069 63.7498 68.5674 63.8385C68.9285 63.9272 69.2895 63.8385 69.5599 63.572L71.2744 61.6186L72.9889 63.572C73.2597 63.8385 73.6203 63.9272 73.9813 63.8385C74.3424 63.7498 74.6128 63.3946 74.6128 63.0394L74.6132 60.82H79.2153V72.2726L63.3339 72.2736ZM79.1248 59.0443H74.5227V56.8248H79.1248V59.0443ZM72.7181 56.8248V60.6424L71.9059 59.7546C71.7256 59.5772 71.4547 59.3994 71.1839 59.3994C70.913 59.3994 70.6426 59.4881 70.4618 59.7546L69.6497 60.6424L69.6501 56.8248H72.7181ZM67.9356 56.8248V59.0443H63.3334V56.8248H67.9356Z" fill="#F7F7F7"/>
</svg>
