<svg width="130" height="111" viewBox="0 0 130 111" fill="none" xmlns="http://www.w3.org/2000/svg">
<path opacity="0.6" d="M127.969 84.5179L3.08044 104.13C1.42779 104.39 0.189841 102.629 1.0023 101.175L52.9019 8.25989C53.5473 7.10443 55.1272 6.89532 56.0686 7.84076L129.058 81.143C130.211 82.3014 129.578 84.2653 127.969 84.5179Z" fill="#FF6F43"/>
<path d="M78.0468 70.4408V53.8841C78.0409 49.995 76.629 46.2324 74.0586 43.2553C71.4885 40.2786 67.9241 38.2775 63.9902 37.6033V33.5101C63.9902 31.9164 63.1168 30.4439 61.6993 29.6468C60.2819 28.8498 58.5351 28.8498 57.1176 29.6468C55.7002 30.4439 54.8267 31.9164 54.8267 33.5101V37.6033C50.8916 38.278 47.3258 40.2802 44.7554 43.2589C42.185 46.2377 40.7739 50.0027 40.7701 53.8931V70.4497C39.4535 70.7696 38.3832 71.7005 37.9087 72.9386C37.4342 74.1766 37.6164 75.5625 38.3958 76.6441C39.1755 77.7257 40.4521 78.3642 41.8092 78.3507H52.0307C52.331 80.7069 53.799 82.7699 55.9596 83.8716C58.1197 84.973 60.6973 84.973 62.8574 83.8716C65.018 82.77 66.4859 80.707 66.7863 78.3507H77.0078C78.3649 78.3642 79.6415 77.7257 80.4212 76.6441C81.2006 75.5625 81.3828 74.1766 80.9083 72.9386C80.4339 71.7006 79.3635 70.7696 78.0469 70.4497L78.0468 70.4408ZM56.7166 33.5105C56.7166 32.5743 57.2299 31.7086 58.0628 31.2405C58.8957 30.772 59.9223 30.772 60.7552 31.2405C61.5881 31.7086 62.1014 32.5743 62.1014 33.5105V37.3827C61.7518 37.3827 61.4022 37.3368 61.0433 37.3368L57.7749 37.3372C57.416 37.3372 57.0664 37.3372 56.7168 37.3832L56.7166 33.5105ZM42.6599 53.8936C42.6599 49.9901 44.2523 46.2468 47.0868 43.487C49.9212 40.7271 53.7657 39.1765 57.7747 39.1765H61.043C65.052 39.1765 68.8965 40.7271 71.7309 43.487C74.5654 46.2468 76.1578 49.9901 76.1578 53.8936V70.3031H42.6602L42.6599 53.8936ZM59.4092 82.8399C58.0997 82.8366 56.8333 82.3837 55.833 81.5612C54.8322 80.7383 54.162 79.5983 53.9394 78.3418H64.8793C64.6566 79.5983 63.9865 80.7383 62.9857 81.5612C61.9854 82.3837 60.7189 82.8366 59.4094 82.8399H59.4092ZM77.0082 76.5022H41.8102C41.0102 76.5022 40.2713 76.0866 39.8711 75.4124C39.4713 74.7377 39.4713 73.9066 39.8711 73.2324C40.2713 72.5577 41.0102 72.1422 41.8102 72.1422H77.0082C77.8083 72.1422 78.5471 72.5577 78.9474 73.2324C79.3472 73.9066 79.3472 74.7377 78.9474 75.4124C78.5471 76.0867 77.8082 76.5022 77.0082 76.5022ZM73.324 53.8937C73.324 54.4016 72.901 54.8135 72.3793 54.8135C71.8577 54.8135 71.4347 54.4016 71.4347 53.8937C71.4351 51.9022 70.8324 49.9553 69.7013 48.296C68.5702 46.637 66.9618 45.3398 65.0771 44.5666C64.5976 44.3682 64.3732 43.8291 64.5765 43.3618C64.7802 42.8945 65.3339 42.6764 65.8138 42.8743C68.0401 43.788 69.9401 45.3208 71.2761 47.2808C72.6117 49.2411 73.3245 51.5411 73.324 53.8936L73.324 53.8937Z" fill="#F7F7F7"/>
<path d="M34.5411 62.4978C34.4559 62.5808 34.3544 62.6467 34.2425 62.6917C34.1306 62.7367 34.0105 62.7598 33.8892 62.7598C33.7679 62.7598 33.6478 62.7367 33.5359 62.6917C33.424 62.6467 33.3225 62.5808 33.2373 62.4978C32.5072 61.7964 31.9281 60.9637 31.533 60.0471C31.1379 59.1305 30.9345 58.1481 30.9345 57.156C30.9345 56.1639 31.1379 55.1815 31.533 54.2649C31.9281 53.3483 32.5072 52.5156 33.2373 51.8142C33.3232 51.7316 33.4251 51.6661 33.5374 51.6214C33.6496 51.5766 33.7699 51.5536 33.8914 51.5536C34.0129 51.5535 34.1332 51.5765 34.2454 51.6211C34.3577 51.6658 34.4597 51.7313 34.5456 51.8138C34.6315 51.8963 34.6997 51.9943 34.7462 52.1022C34.7928 52.2101 34.8167 52.3257 34.8168 52.4425C34.8168 52.5592 34.7929 52.6749 34.7465 52.7828C34.7 52.8906 34.6319 52.9887 34.546 53.0713C33.9875 53.6074 33.5443 54.244 33.242 54.9449C32.9397 55.6457 32.7841 56.3969 32.7841 57.1556C32.7841 57.9143 32.9397 58.6655 33.242 59.3664C33.5443 60.0672 33.9875 60.7039 34.546 61.2399C34.7175 61.4081 34.8131 61.6344 34.8121 61.8699C34.8112 62.1053 34.7138 62.3309 34.5411 62.4978ZM31.2697 64.3826C31.4431 64.5488 31.5408 64.7744 31.5412 65.0098C31.5415 65.2452 31.4446 65.471 31.2717 65.6377C31.0989 65.8044 30.8642 65.8983 30.6193 65.8987C30.3744 65.8991 30.1394 65.8059 29.9659 65.6397C28.8053 64.5266 27.8844 63.2044 27.2559 61.7489C26.6274 60.2933 26.3037 58.7329 26.3033 57.157C26.3028 55.5811 26.6256 54.0205 27.2532 52.5646C27.8809 51.1087 28.801 49.7861 29.961 48.6723C30.0462 48.5869 30.1484 48.5187 30.2614 48.4717C30.3745 48.4248 30.4961 48.3999 30.6193 48.3987C30.7424 48.3975 30.8646 48.4199 30.9786 48.4647C31.0926 48.5094 31.1962 48.5756 31.2832 48.6593C31.3703 48.7429 31.4391 48.8425 31.4857 48.9521C31.5322 49.0617 31.5556 49.1791 31.5543 49.2974C31.553 49.4158 31.5272 49.5327 31.4783 49.6414C31.4295 49.75 31.3585 49.8482 31.2697 49.9302C30.2818 50.8788 29.498 52.0053 28.9633 53.2452C28.4286 54.4851 28.1534 55.8142 28.1534 57.1564C28.1534 58.4986 28.4286 59.8277 28.9633 61.0676C29.498 62.3075 30.2818 63.434 31.2697 64.3826Z" fill="#F7F7F7"/>
<path d="M83.3358 62.4978C83.421 62.5808 83.5225 62.6467 83.6344 62.6917C83.7463 62.7367 83.8664 62.7598 83.9877 62.7598C84.109 62.7598 84.2291 62.7367 84.341 62.6917C84.4529 62.6467 84.5544 62.5808 84.6396 62.4978C85.3696 61.7964 85.9487 60.9637 86.3439 60.0471C86.739 59.1305 86.9423 58.1481 86.9423 57.156C86.9423 56.1639 86.739 55.1815 86.3439 54.2649C85.9487 53.3483 85.3696 52.5156 84.6396 51.8142C84.5537 51.7316 84.4517 51.6661 84.3395 51.6214C84.2273 51.5766 84.107 51.5536 83.9855 51.5536C83.864 51.5535 83.7437 51.5765 83.6315 51.6211C83.5192 51.6658 83.4172 51.7313 83.3313 51.8138C83.2453 51.8963 83.1772 51.9943 83.1306 52.1022C83.0841 52.2101 83.0601 52.3257 83.0601 52.4425C83.0601 52.5592 83.0839 52.6749 83.1304 52.7828C83.1769 52.8906 83.245 52.9887 83.3308 53.0713C83.8894 53.6074 84.3325 54.244 84.6349 54.9449C84.9372 55.6457 85.0928 56.3969 85.0928 57.1556C85.0928 57.9143 84.9372 58.6655 84.6349 59.3664C84.3325 60.0672 83.8894 60.7039 83.3308 61.2399C83.1594 61.4081 83.0638 61.6344 83.0647 61.8699C83.0657 62.1053 83.163 62.3309 83.3358 62.4978ZM86.6072 64.3826C86.4337 64.5488 86.3361 64.7744 86.3357 65.0098C86.3353 65.2452 86.4322 65.471 86.6051 65.6377C86.778 65.8044 87.0127 65.8983 87.2576 65.8987C87.5025 65.8991 87.7375 65.8059 87.9109 65.6397C89.0716 64.5266 89.9925 63.2044 90.6209 61.7489C91.2494 60.2933 91.5731 58.7329 91.5736 57.157C91.5741 55.5811 91.2512 54.0205 90.6236 52.5646C89.996 51.1087 89.0759 49.7861 87.9159 48.6723C87.8306 48.5869 87.7285 48.5187 87.6154 48.4717C87.5024 48.4248 87.3807 48.3999 87.2576 48.3987C87.1345 48.3975 87.0123 48.4199 86.8983 48.4647C86.7843 48.5094 86.6807 48.5756 86.5936 48.6593C86.5065 48.7429 86.4377 48.8425 86.3912 48.9521C86.3446 49.0617 86.3213 49.1791 86.3226 49.2974C86.3238 49.4158 86.3497 49.5327 86.3985 49.6414C86.4474 49.75 86.5183 49.8482 86.6072 49.9302C87.5951 50.8788 88.3788 52.0053 88.9135 53.2452C89.4482 54.4851 89.7235 55.8142 89.7235 57.1564C89.7235 58.4986 89.4482 59.8277 88.9135 61.0676C88.3788 62.3075 87.5951 63.434 86.6072 64.3826Z" fill="#F7F7F7"/>
</svg>
